<?xml version="1.0" encoding="utf-8"?>
<!-- Generator: Adobe Illustrator 19.1.0, SVG Export Plug-In . SVG Version: 6.00 Build 0)  -->
<svg version="1.1" id="Слой_1" xmlns="http://www.w3.org/2000/svg" xmlns:xlink="http://www.w3.org/1999/xlink" x="0px" y="0px"
	 viewBox="0 0 64 54" style="enable-background:new 0 0 64 54;" xml:space="preserve">
<style type="text/css">
	.st0{fill:url(#SVGID_1_);}
	.st1{fill:#412B29;}
	.st2{fill:url(#SVGID_2_);}
	.st3{fill:url(#SVGID_3_);}
	.st4{fill:url(#SVGID_4_);}
	.st5{fill:url(#SVGID_5_);}
	.st6{fill:#CACACA;}
	.st7{fill:url(#SVGID_6_);}
	.st8{fill:url(#SVGID_7_);}
	.st9{fill:url(#SVGID_8_);}
</style>
<g>
	<radialGradient id="SVGID_1_" cx="37.9321" cy="27.7239" r="25.3692" gradientUnits="userSpaceOnUse">
		<stop  offset="0" style="stop-color:#000000"/>
		<stop  offset="1" style="stop-color:#FFFFFF;stop-opacity:0"/>
	</radialGradient>
	<circle class="st0" cx="37.9" cy="27.7" r="25.4"/>
	<g>
		<path class="st1" d="M16.1,38.9c0,0-3.9,3-5.9,2.3c-2-0.7,1.1-3.9,1.1-3.9h3.5L16.1,38.9z"/>
		<path class="st1" d="M24,39.4c0,0-3.9,4.3-7,4.2c-3.1-0.1,0.5-4.5,0.5-4.5l5.3-0.9L24,39.4z"/>
		<linearGradient id="SVGID_2_" gradientUnits="userSpaceOnUse" x1="46.3953" y1="13.2757" x2="8.2629" y2="27.3578">
			<stop  offset="0" style="stop-color:#C34E45"/>
			<stop  offset="0.1447" style="stop-color:#C05046"/>
			<stop  offset="0.3141" style="stop-color:#B85749"/>
			<stop  offset="0.4959" style="stop-color:#AC6051"/>
			<stop  offset="0.6863" style="stop-color:#9C6A5F"/>
			<stop  offset="0.8816" style="stop-color:#8A7670"/>
			<stop  offset="1" style="stop-color:#7F7F7F"/>
		</linearGradient>
		<path class="st2" d="M52.6,11.8c0.2-0.2,0-0.5-0.2-0.5c-1.3,0.2-3.6,0.4-4.6-0.7c-1.7-1.9-7.7-10.9-22.1-7.8
			c-0.3,0.1-0.3,0.4-0.1,0.6c1.3,0.8,1.7,1.3,1.7,1.3s-2.8,0.1-4.4,0.7c-0.2,0.1-0.3,0.4,0,0.6L24,6.6c0,0-2.1,0.3-3.3,1
			c-0.2,0.1-0.2,0.5,0,0.6l0.7,0.3l-3.2,2.2c0,0-3.5-1.5-1.5-8.7C12.6,2.8,5,8.4,9.9,21.9c0,0-3.7,0.4-5.5-6.9c0,0-7,10,1.6,19.1
			c8.7,9.1,23.6,4.9,23.6,4.9l-2.5,1.6c-0.4,0.3-0.2,1,0.3,0.9c1.5-0.3,3.4-0.8,4.9-1.7L32.3,40c-0.2,0.4,0.3,0.9,0.7,0.7
			c1.5-0.7,4-1.9,5.1-3.6L38,37.7c-0.1,0.4,0.3,0.8,0.7,0.6c2.4-1.2,8.7-5,9.7-12.9C49.5,16.2,49.5,14.8,52.6,11.8z"/>
		<g>
			<linearGradient id="SVGID_3_" gradientUnits="userSpaceOnUse" x1="7.4741" y1="38.6185" x2="7.4741" y2="16.8293">
				<stop  offset="0" style="stop-color:#353535"/>
				<stop  offset="0.9984" style="stop-color:#979797"/>
			</linearGradient>
			<path class="st3" d="M3.3,16.8c0,0-2.1,4.2-1.5,8.4c0.4,2.7,2,6.9,4.6,9.3c2.1,1.9,4.5,3.2,6.9,4.1C10.9,36.9,3.9,33.8,3.3,16.8"
				/>
		</g>
		<linearGradient id="SVGID_4_" gradientUnits="userSpaceOnUse" x1="43.5452" y1="7.535" x2="27.1943" y2="18.4004">
			<stop  offset="0" style="stop-color:#1D1D1D"/>
			<stop  offset="0.9992" style="stop-color:#666666"/>
		</linearGradient>
		<path class="st4" d="M19.9,16.9c0.3-0.3,0.6-0.6,0.8-0.8c4.2-3.7,12.3-3.6,15.6,1c0.2,0.2,0.3,0.5,0.5,0.7
			c5.5,6.4,12.2,2.8,12.2,2.8l0,0c0.7-5,1.2-6.4,3.6-8.7c0.2-0.2,0-0.5-0.2-0.5c-1.3,0.2-3.6,0.4-4.6-0.7
			c-1.7-1.9-7.7-10.9-22.1-7.8c-0.3,0.1-0.3,0.4-0.1,0.6c1.3,0.8,1.7,1.3,1.7,1.3s-2.8,0.1-4.4,0.7c-0.2,0.1-0.3,0.4,0,0.6L24,6.6
			c0,0-2.1,0.3-3.3,1c-0.2,0.1-0.2,0.5,0,0.6l0.7,0.3l-3.2,2.2C18.2,10.6,16.5,20.6,19.9,16.9z"/>
		<linearGradient id="SVGID_5_" gradientUnits="userSpaceOnUse" x1="25.4568" y1="10.5824" x2="11.5676" y2="24.4715">
			<stop  offset="0" style="stop-color:#CACACA"/>
			<stop  offset="1" style="stop-color:#7F7F7F"/>
		</linearGradient>
		<path class="st5" d="M24.6,27.8c8.4-1.6,10.1-8.7,7.3-9.5c-9.6-2.8-13.6-7.7-13.7-7.9l0,0c0,0-3.1-3.6-1.5-8.7
			C12.6,2.6,5,8.2,9.9,21.7c0,0,0,0,0,0C12.8,27.4,17.1,29.2,24.6,27.8z"/>
		<circle class="st6" cx="42.1" cy="11.5" r="1.2"/>
		<linearGradient id="SVGID_6_" gradientUnits="userSpaceOnUse" x1="8.3402" y1="8.7075" x2="20.8149" y2="8.7075">
			<stop  offset="0" style="stop-color:#353535"/>
			<stop  offset="0.9984" style="stop-color:#666666"/>
		</linearGradient>
		<path class="st7" d="M20.8,12.9L20.8,12.9c-1.7-1.4-2.6-2.4-2.6-2.5l0,0c0,0-3.1-3.6-1.5-8.7c-3.4,0.7-9.2,4.7-8.2,13.9
			c0.4-1.5,1.2-3.1,3-4C15.2,9.7,19.6,12,20.8,12.9z"/>
		<linearGradient id="SVGID_7_" gradientUnits="userSpaceOnUse" x1="7.6442" y1="25.7097" x2="7.6442" y2="14.9327">
			<stop  offset="0" style="stop-color:#1D1D1D"/>
			<stop  offset="0.9992" style="stop-color:#4E4E4E"/>
		</linearGradient>
		<path class="st8" d="M12.6,25.5c0,0-8.2,1.9-9.7-4.8c-0.7-3.2,1.5-5.7,1.5-5.7s1.4,6.7,5.5,6.6C10.2,22.6,11.6,24.6,12.6,25.5z"/>
		<linearGradient id="SVGID_8_" gradientUnits="userSpaceOnUse" x1="10.0005" y1="19.8499" x2="33.145" y2="19.8499">
			<stop  offset="0" style="stop-color:#353535"/>
			<stop  offset="0.9966" style="stop-color:#7F7F7F"/>
		</linearGradient>
		<path class="st9" d="M31.9,18.3c-7-2-11-5.2-12.7-6.8c-2.1-0.2-4.3,0.1-6.2,1.7c-3.1,2.7-3.3,5.8-2.8,9c2.8,5.3,7.1,7,14.4,5.6
			C33,26.3,34.7,19.1,31.9,18.3z"/>
	</g>
</g>
</svg>
